<?xml version="1.0" encoding="utf-8"?>
<!-- Generator: Adobe Illustrator 22.0.1, SVG Export Plug-In . SVG Version: 6.00 Build 0)  -->
<svg version="1.1" id="Слой_1" xmlns="http://www.w3.org/2000/svg" xmlns:xlink="http://www.w3.org/1999/xlink" x="0px" y="0px"
	 viewBox="0 0 480 550" style="enable-background:new 0 0 480 550;" xml:space="preserve">
<style type="text/css">
	.st0{fill:rgba(1,54,104,0.5);;}
	.st1{fill-rule:evenodd;clip-rule:evenodd;fill:#FFFFFF;}
	.st2{fill:#003768;}
	.st3{fill:#BDDBE0;}
	.st4{fill:#FFFFFF;}
	.st5{fill:#185F93;}
	.st6{clip-path:url(#SVGID_2_);}
	.st7{fill:#41AACE;}
	.st8{fill:#006E99;}
</style>
<g>
	<path class="st0" d="M480,405.4c0,4.5-3.2,10.1-7.1,12.4L247.2,548.3c-3.9,2.3-10.4,2.3-14.3,0L7.2,417.9C3.2,415.6,0,410,0,405.4
		V144.6c0-4.6,3.2-10.1,7.2-12.4L232.8,1.7c3.9-2.3,10.4-2.3,14.3,0l225.7,130.4c3.9,2.3,7.1,7.9,7.1,12.4V405.4z"/>
	<g id="XMLID_384_">
		<g>
			<g>
				<path class="st1" d="M249.5,386.3c-6.6,0-12.9,0-19.2,0c-0.4,0-1-0.3-1.2-0.7c-3.1-6.2-12.7-6.8-18-1.3
					c-5.6,5.9-7.4,13.2-5.5,21c1.4,5.8,6.6,8.5,12.9,7.4c2.8-0.5,5.4-1.7,7.6-3.6c0.3-0.3,0.5-0.5,0.8-0.8c0.1-0.1,0-0.2,0-0.6
					c-2.7,0-5.5,0-8.5,0c0.5-2.7,0.9-5.2,1.3-7.6c0.3-2,0.7-4,1-6c0.2-1,0.5-1.6,1.7-1.6c8.7,0,17.4,0,26.1,0c0.2,0,0.4,0.1,0.8,0.2
					c-0.6,3.5-1.2,6.9-1.8,10.4c-1.4,7.9-2.8,15.9-4.3,23.8c-0.1,0.5-0.7,1.4-1,1.4c-4.6,0.1-9.3,0.1-14,0.1c0-1.4,0-2.6,0-3.7
					c-0.2-0.1-0.3-0.2-0.4-0.1c-7.2,6.2-15.6,6.3-24.1,4.1c-10.2-2.6-16.8-10.4-18.2-20.9c-1.3-9.6-0.2-18.8,4.8-27.2
					c7.7-12.7,19.4-17.8,33.9-17c7.6,0.4,14.3,3,19.4,8.8C247,376.2,248.8,380.9,249.5,386.3z"/>
				<path class="st1" d="M292.7,424.6c-0.2,1.2-0.5,2.4-0.8,3.6c-6.2,0-12.2,0-18.5,0c3.7-21.1,7.4-42.2,11.2-63.3
					c6.2,0,12.3,0,18.6,0c-1.1,6.3-2.2,12.5-3.3,18.5c2.6-0.9,5-2,7.5-2.4c8-1.3,14.6,2.2,18.2,9.5c5,10.1,2.5,25.2-5.4,33.1
					c-5.5,5.5-14.9,7.5-22.1,4.4C296.2,427.3,294.6,425.9,292.7,424.6z M309.5,403.6c-0.2,0-0.3-0.1-0.5-0.1c0-0.6,0-1.3,0-1.9
					c-0.2-3-1.6-5.2-3.8-5.8c-2.8-0.8-5.9,0.5-7.5,3.1c-1.8,2.9-2.2,6.1-2,9.5c0.2,3.3,1.7,5.4,4.2,6c2.9,0.7,5.9-0.6,7.2-3.5
					C308.3,408.6,308.8,406,309.5,403.6z"/>
				<path class="st1" d="M139.5,365c-0.5,3-1,6-1.5,9c-0.4,2.2-1,4.3-1.2,6.5c-0.2,1.6-0.9,1.9-2.3,1.9c-8-0.1-16,0-24-0.1
					c-1.8,0-2.7,0.3-2.8,2.3c-0.1,1.9-0.6,3.7-1,5.9c8.2,0,16.2,0,24.4,0c-0.6,3.3-1.1,6.3-1.6,9.4c-0.3,1.6-0.6,3.2-0.8,4.8
					c-0.2,1.4-0.8,2-2.4,2c-6.8-0.1-13.6,0-20.4-0.1c-1.4,0-2.1,0.3-2.3,1.9c-1,6.2-2.1,12.4-3.2,18.6c-0.1,0.5-0.8,1.2-1.2,1.3
					c-6.2,0.1-12.5,0.1-18.9,0.1c0.7-3.8,1.2-7.5,1.9-11.1c2.6-14.7,5.2-29.4,7.8-44.1c0.4-2.3,0.8-4.6,1.2-6.9
					c0.2-0.9,0.5-1.4,1.6-1.4c15.3,0,30.5,0,45.8,0C138.7,364.8,139,364.9,139.5,365z"/>
				<path class="st1" d="M348.3,409.9c0.8,5.5,5.4,7.7,10.1,5c1.9-1.1,3.8-1.4,5.9-1.4c3.9,0,7.8,0,11.7,0c0.6,0,1.2,0,2.4,0
					c-0.8,1.5-1.3,2.7-1.9,3.8c-4.4,7.2-10.9,11.1-19.2,11.8c-4,0.3-8.2,0.1-12.2-0.8c-8.1-1.7-13.3-6.9-14.6-15.2
					c-1.6-10.3,0.9-19.5,9.1-26.5c6.2-5.2,13.7-6.4,21.5-5.8c4.5,0.4,8.7,1.6,12.3,4.4c5.5,4.3,7.4,10.2,7.3,16.9c0,2-0.5,4-0.7,6
					c-0.1,1.4-0.8,1.7-2.1,1.7c-9.1,0-18.3,0-27.4,0C349.8,409.9,349.2,409.9,348.3,409.9z M349.3,400.3c4.5,0,8.8,0,13.2,0
					c-0.1-3.6-1.5-5.4-4.3-5.9C354.5,393.8,350.8,396.2,349.3,400.3z"/>
				<path class="st1" d="M164.2,365.1c-2.7,15-5.3,30.1-8,45.5c9,0,17.9,0,27,0c-0.6,3.4-1.1,6.4-1.6,9.4c-0.4,2.2-1,4.3-1.2,6.5
					c-0.1,1.6-0.8,1.9-2.3,1.9c-8.5-0.1-16.9,0-25.4,0c-5.7,0-11.5,0-17.2,0c-0.7,0-1.4,0-2.4,0c0.5-2.9,0.9-5.5,1.4-8.1
					c2.8-15.8,5.6-31.7,8.4-47.5c0.4-2.2,0.7-4.4,1.2-6.5c0.1-0.5,0.9-1.3,1.3-1.3c6-0.1,12,0,18,0
					C163.6,364.8,163.8,364.9,164.2,365.1z"/>
				<path class="st1" d="M409.6,381.9c2.9,0,5.5,0,8.4,0c-0.9,5-1.7,9.8-2.6,14.8c-2.3,0-4.5,0-6.7,0c-1.1,0-1.8,0.3-1.9,1.5
					c-0.6,3.6-1.3,7.2-1.8,10.8c-0.5,3.4,0.8,4.8,4.3,4.8c0.9,0,1.9-0.1,3.2-0.1c-0.9,5-1.7,9.8-2.5,14.6c-4.9,0-9.7,0.5-14.4-0.1
					c-7.3-1-10.9-6.4-9.9-14.2c0.6-4.7,1.5-9.5,2.3-14.2c0.2-0.9,0.3-1.8,0.5-3c-2,0-3.9,0-5.9,0c0.8-4.8,1.6-9.3,2.5-13.8
					c0.1-0.4,0.6-0.7,1-0.9c0.2-0.1,0.5,0,0.7,0c4.6-0.1,4.8-0.1,5.2-4.7c0.3-3.2,1.5-4.8,4.6-5.8c5-1.5,10-3.5,14.9-5.3
					c0.2-0.1,0.5-0.1,1-0.1C411.4,371.3,410.5,376.4,409.6,381.9z"/>
				<path class="st1" d="M251.9,409.1c6.3,0,12.5,0,18.8,0c-1.1,6.5-2.2,12.8-3.3,19.2c-6.2,0-12.4,0-18.8,0
					C249.7,421.8,250.7,415.5,251.9,409.1z"/>
			</g>
		</g>
	</g>
	<g>
		<path class="st2" d="M364,283.4V282c-6-40-16.1-46-76.3-74.4l-78.7,1.7c-60.2,20.4-75.7,34-81,79.4l-4.8,43.2h246.5L364,283.4z"/>
		<g>
			<polygon class="st3" points="213.4,188.6 208,208.6 245.2,238.7 244,192 			"/>
			<polygon class="st4" points="275.2,189.3 280.5,209.3 243.4,239.3 244.5,192.6 			"/>
		</g>
		<path class="st4" d="M210.3,198c3.7,4.7,23.1,19.7,34.3,18.5c11.2-1.2,29.8-11.2,33.5-19.2c3.1,3.3,14.7,12.3,14.7,12.3
			l-49.3,115.1l-46-110.8L210.3,198z"/>
		<g>
			<g>
				<g>
					<g>
						<path class="st4" d="M209.3,189c1.5,2,3.1,3.9,4.7,5.7c0,0,0-0.1,0-0.1C212.4,192.8,210.8,191,209.3,189z"/>
					</g>
					<path class="st3" d="M304.4,137.9c0-6.8-2-9.5-5.3-10.6c0.8-13.8,2.8-28.5-2.3-38.6c-9.6-19.4-36.2-31.3-54.4-31.3
						c-17.4,0-39.6,10.2-49.4,28.2c-6,11.1-3,25.8-2.2,40.7c-3.7,1-5.9,3.6-5.9,10.8c0,10.6,4.8,27.5,12.2,29.9c1,2.6,2,5.1,3.2,7.5
						c0.1,0.2,0.2,0.3,0.2,0.4c2.6,5.2,5.5,9.9,8.6,14.1c1.5,2,3.1,3.8,4.7,5.5c0,0,0,0.1,0,0.1c9,9.8,19.7,15.6,31.3,15.6
						c17.6,0,33.3-13.3,44-34.3c0.8-1.6,1.7-3,2.8-4.2c0.6-1.6,1.2-3.1,1.8-4.7C300.3,162.9,304.4,147.7,304.4,137.9z"/>
				</g>
			</g>
			<g>
				<g>
					<path class="st4" d="M289.2,175.9c0.8-1.6,1.7-3,2.8-4.2c0.6-1.6,1.2-3.1,1.8-4.7c6.6-4.1,10.7-19.2,10.7-29.1
						c0-6.8-2-9.5-5.3-10.6c0.8-13.8,2.8-28.5-2.3-38.6c-9.5-19.1-35.6-31-53.7-31.2v152.7c0.7,0,1.4,0.1,2.1,0.1
						C262.8,210.2,278.6,196.9,289.2,175.9z"/>
				</g>
			</g>
			<g>
				<path class="st2" d="M277.3,82.5c1.1,8.9-15.6,8.5-26.7,6.7c-11.1-1.8-17.6,0.4-28,3.3c-10.5,3-20.7,13.9-22.2,19.3
					c-0.9,3.3-0.1,18.9-0.1,18.9l-9.3-4.3c0,0-4.3-22.9-0.9-37.5c3.2-14.1,11.4-25.5,37.6-31.1c23.8-5.2,40.5-2,41.3,3.9
					c1.8,0.4,3.3-1.1,5.6-1.1c5.6,0,16.1,6.5,20.9,14.3c4.8,7.8,9.4,22.1,6.1,46.2c-0.7,6.3-2,8-2,8l-7.8,4.4c0,0,3.4-30.4-9.2-39.3
					C278.6,91.1,277.3,82.5,277.3,82.5z"/>
				<g>
					<g>
						<g>
							<path class="st5" d="M282.5,93.6c12.6,8.9,9.2,39.3,9.2,39.3l7.7-4.4c0,0,1.3-1.7,2-8c3.3-24.1-1.3-38.4-6.1-46.2
								c-4.8-7.8-15.4-14.3-20.9-14.3c-1.1,0-4.1,0.8-5,1.1c2.4,7.9,7.9,19.1,7.8,21C277.2,82.1,278.5,90.8,282.5,93.6z"/>
						</g>
						<g>
							<path class="st5" d="M277.2,82.1c0,0.5-0.1,1.3-0.1,2.1C277.2,83.6,277.3,82.9,277.2,82.1z"/>
						</g>
					</g>
				</g>
			</g>
		</g>
		<g>
			<defs>
				<path id="SVGID_1_" d="M209.6,198.6c3.7,4.7,23.1,19.7,34.3,18.5c11.2-1.2,29.8-11.2,33.5-19.2c3.1,3.3,14.7,12.3,14.7,12.3
					l-49.3,115.1l-46-110.8L209.6,198.6z"/>
			</defs>
			<clipPath id="SVGID_2_">
				<use xlink:href="#SVGID_1_"  style="overflow:visible;"/>
			</clipPath>
			<g class="st6">
				<g>
					<g>
						<polygon class="st7" points="251.5,247.3 243.3,247.3 243.3,225.8 259.5,225.8 259.6,235.1 						"/>
						<polygon class="st7" points="252.5,244 266.7,379 244.2,396.7 243.7,396.3 242.9,244.1 						"/>
						<polygon class="st8" points="237.1,247.3 243.9,247.3 243.9,225.8 227.3,225.8 227.4,235.1 						"/>
						<polygon class="st8" points="235.9,244 221.7,379 244.2,396.7 243.9,244 						"/>
					</g>
					<polygon class="st8" points="252.8,247 235.7,247 235.7,245.5 252.6,245.5 					"/>
				</g>
			</g>
		</g>
	</g>
</g>
</svg>
