<?xml version="1.0" encoding="utf-8"?>
<!-- Generator: Adobe Illustrator 22.0.1, SVG Export Plug-In . SVG Version: 6.00 Build 0)  -->
<svg version="1.1" id="Слой_1" xmlns="http://www.w3.org/2000/svg" xmlns:xlink="http://www.w3.org/1999/xlink" x="0px" y="0px"
	 viewBox="0 0 126 126" style="enable-background:new 0 0 126 126;" xml:space="preserve">
<style type="text/css">
	.st0{clip-path:url(#SVGID_2_);}
	.st1{fill:#FFFFFF;}
	.st2{opacity:0.5;fill:url(#SVGID_3_);}
	.st3{fill:url(#SVGID_4_);}
	.st4{clip-path:url(#SVGID_6_);}
	.st5{clip-path:url(#SVGID_8_);fill:#C92027;}
	.st6{clip-path:url(#SVGID_8_);fill:#FFFFFF;}
	.st7{clip-path:url(#SVGID_8_);fill:#2B3561;}
	.st8{opacity:0.5;fill:url(#SVGID_9_);}
	.st9{opacity:0.2;fill:url(#SVGID_10_);}
	.st10{opacity:0.2;}
	.st11{fill:#F7F7F7;}
	.st12{fill:#EFEFEF;}
	.st13{fill:#E6E6E6;}
	.st14{fill:#DEDEDE;}
	.st15{fill:#D6D6D6;}
	.st16{fill:#CECECE;}
	.st17{fill:#C5C5C5;}
	.st18{fill:#BDBDBD;}
	.st19{fill:#B5B5B5;}
	.st20{fill:#ADADAD;}
	.st21{fill:#A5A5A5;}
	.st22{fill:#9C9C9C;}
	.st23{fill:#949494;}
	.st24{fill:#8C8C8C;}
	.st25{fill:#848484;}
	.st26{fill:#7B7B7B;}
	.st27{fill:#737373;}
	.st28{fill:#6B6B6B;}
	.st29{fill:#636363;}
	.st30{fill:#5A5A5A;}
	.st31{fill:#525252;}
	.st32{fill:#4A4A4A;}
	.st33{fill:#424242;}
	.st34{fill:#3A3A3A;}
	.st35{fill:#313131;}
	.st36{fill:#292929;}
	.st37{fill:#212121;}
	.st38{fill:#191919;}
	.st39{fill:#101010;}
	.st40{fill:#080808;}
	.st41{fill:url(#SVGID_11_);stroke:#231F20;stroke-width:0.1599;}
	.st42{clip-path:url(#SVGID_13_);}
	.st43{opacity:0.5;fill:url(#SVGID_14_);}
	.st44{fill:url(#SVGID_15_);}
	.st45{clip-path:url(#SVGID_17_);}
	.st46{clip-path:url(#SVGID_19_);fill:#C92027;}
	.st47{clip-path:url(#SVGID_19_);fill:#FFFFFF;}
	.st48{clip-path:url(#SVGID_19_);fill:#2B3561;}
	.st49{opacity:0.5;fill:url(#SVGID_20_);}
</style>
<g id="USA_2_">
	<g id="USA_6_">
		<g>
			<g>
				<g>
					<defs>
						<path id="SVGID_1_" d="M114.7,63.6c0,29.3-23.8,53.1-53.1,53.1c-29.3,0-53.1-23.8-53.1-53.1c0-29.3,23.8-53.1,53.1-53.1
							C90.9,10.5,114.7,34.3,114.7,63.6z"/>
					</defs>
					<clipPath id="SVGID_2_">
						<use xlink:href="#SVGID_1_"  style="overflow:visible;"/>
					</clipPath>
					<g class="st0">
						<g>
							<polygon class="st1" points="43.8,10.4 79.3,10.4 79.3,47 168,45.9 168,81.4 79.3,82.5 79.3,117.9 43.8,117.9 43.8,82.5 
								-44.9,81.4 -44.9,45.9 43.8,47 							"/>
							<polygon class="st1" points="-44.9,10.4 -21.1,11.5 168,106 168,116.9 144.2,117.9 -44.9,22.3 							"/>
							<g>
								<polygon class="st1" points="168,10.4 144.2,11.5 -44.9,106 -44.9,116.9 -21.1,117.9 168,22.3 								"/>
							</g>
						</g>
					</g>
				</g>
				<linearGradient id="SVGID_3_" gradientUnits="userSpaceOnUse" x1="61.5085" y1="71.9569" x2="61.6224" y2="27.5393">
					<stop  offset="0" style="stop-color:#FFFFFF;stop-opacity:0"/>
					<stop  offset="1" style="stop-color:#FFFFFF"/>
				</linearGradient>
				<path class="st2" d="M103.1,43.2c0,16.1-18.6,29.1-41.5,29.1c-22.9,0-41.5-13-41.5-29.1s18.6-29.1,41.5-29.1
					C84.5,14.2,103.1,27.2,103.1,43.2z"/>
				<linearGradient id="SVGID_4_" gradientUnits="userSpaceOnUse" x1="62.3357" y1="48.9663" x2="62.3357" y2="103.6479">
					<stop  offset="5.618000e-03" style="stop-color:#DDE1E4"/>
					<stop  offset="0.2528" style="stop-color:#FFFBE3"/>
					<stop  offset="0.3953" style="stop-color:#F0EAD6"/>
					<stop  offset="0.5955" style="stop-color:#D4CBBF"/>
					<stop  offset="0.7865" style="stop-color:#ECECED"/>
					<stop  offset="1" style="stop-color:#D6D3B9"/>
				</linearGradient>
				<path class="st3" d="M3.9,63.2c0,18.3,8.4,34.7,21.6,45.4C15.1,97.2,8.6,81,8.6,63.2c0-17.9,6.5-34,16.9-45.4
					C12.3,28.5,3.9,44.8,3.9,63.2z M99.1,17.8C109.5,29.2,116,45.3,116,63.2c0,17.9-6.5,34-16.9,45.4c13.2-10.7,21.6-27.1,21.6-45.4
					C120.8,44.8,112.3,28.5,99.1,17.8z"/>
				<path class="st1" d="M62.3,117.4c-29.9,0-54.2-24.2-54.8-52.8c0,0.4,0,0.7,0,1.1c0,30.3,24.6,54.8,54.8,54.8
					c30.3,0,54.8-24.6,54.8-54.8c0-0.4,0-0.7,0-1.1C116.6,93.2,92.3,117.4,62.3,117.4z"/>
				<path class="st1" d="M62.3,9.5c29.9,0,54.2,23.3,54.8,51.9c0-0.4,0-0.7,0-1.1c0-30.3-24.6-54.8-54.8-54.8
					C32,5.4,7.5,30,7.5,60.3c0,0.4,0,0.7,0,1.1C8.1,32.8,32.4,9.5,62.3,9.5z"/>
				<g>
				</g>
				<g>
					<defs>
						<path id="SVGID_5_" d="M117.9,63.6c0,30.3-24.6,54.9-54.9,54.9c-30.3,0-54.9-24.6-54.9-54.9C8.1,33.3,32.7,8.7,63,8.7
							C93.3,8.7,117.9,33.3,117.9,63.6z"/>
					</defs>
					<clipPath id="SVGID_6_">
						<use xlink:href="#SVGID_5_"  style="overflow:visible;"/>
					</clipPath>
					<g class="st4">
						<g>
							<defs>
								<rect id="SVGID_7_" x="-21" y="8.7" width="190" height="110.8"/>
							</defs>
							<clipPath id="SVGID_8_">
								<use xlink:href="#SVGID_7_"  style="overflow:visible;"/>
							</clipPath>
							<rect x="-21" y="111" class="st5" width="190" height="8.5"/>
							<rect x="-21" y="102.5" class="st6" width="190" height="8.5"/>
							<rect x="-21" y="94" class="st5" width="190" height="8.5"/>
							<rect x="-21" y="85.4" class="st6" width="190" height="8.5"/>
							<rect x="-21" y="76.9" class="st5" width="190" height="8.5"/>
							<rect x="-21" y="68.4" class="st6" width="190" height="8.5"/>
							<rect x="-21" y="59.9" class="st5" width="190" height="8.5"/>
							<rect x="-21" y="51.3" class="st6" width="190" height="8.5"/>
							<rect x="-21" y="42.8" class="st5" width="190" height="8.5"/>
							<rect x="-21" y="34.3" class="st6" width="190" height="8.5"/>
							<rect x="-21" y="25.8" class="st5" width="190" height="8.5"/>
							<rect x="-21" y="17.2" class="st6" width="190" height="8.5"/>
							<rect x="-21" y="8.7" class="st5" width="190" height="8.5"/>
							<rect x="-21" y="8.7" class="st7" width="86.7" height="59.7"/>
							<polygon class="st6" points="-13.2,15.3 -12.5,17.6 -10.1,17.6 -12,18.9 -11.3,21.2 -13.2,19.8 -15.1,21.2 -14.4,18.9 
								-16.3,17.6 -13.9,17.6 							"/>
							<polygon class="st6" points="-13.2,25.3 -12.5,27.5 -10.1,27.5 -12,28.9 -11.3,31.2 -13.2,29.8 -15.1,31.2 -14.4,28.9 
								-16.3,27.5 -13.9,27.5 							"/>
							<polygon class="st6" points="-13.2,35.2 -12.5,37.5 -10.1,37.5 -12,38.9 -11.3,41.1 -13.2,39.7 -15.1,41.1 -14.4,38.9 
								-16.3,37.5 -13.9,37.5 							"/>
							<polygon class="st6" points="-13.2,45.2 -12.5,47.4 -10.1,47.4 -12,48.8 -11.3,51.1 -13.2,49.7 -15.1,51.1 -14.4,48.8 
								-16.3,47.4 -13.9,47.4 							"/>
							<polygon class="st6" points="-13.2,55.1 -12.5,57.4 -10.1,57.4 -12,58.8 -11.3,61 -13.2,59.6 -15.1,61 -14.4,58.8 
								-16.3,57.4 -13.9,57.4 							"/>
							<polygon class="st6" points="-6.3,20.5 -5.5,22.8 -3.2,22.8 -5.1,24.2 -4.3,26.4 -6.3,25.1 -8.2,26.4 -7.4,24.2 -9.4,22.8 
								-7,22.8 							"/>
							<polygon class="st6" points="-6.3,30.5 -5.5,32.8 -3.2,32.8 -5.1,34.1 -4.3,36.4 -6.3,35 -8.2,36.4 -7.4,34.1 -9.4,32.8 
								-7,32.8 							"/>
							<polygon class="st6" points="-6.3,40.5 -5.5,42.7 -3.2,42.7 -5.1,44.1 -4.3,46.4 -6.3,45 -8.2,46.4 -7.4,44.1 -9.4,42.7 
								-7,42.7 							"/>
							<polygon class="st6" points="-6.3,50.4 -5.5,52.7 -3.2,52.7 -5.1,54.1 -4.3,56.3 -6.3,54.9 -8.2,56.3 -7.4,54.1 -9.4,52.7 
								-7,52.7 							"/>
							<polygon class="st6" points="0.8,15.3 1.5,17.6 3.9,17.6 1.9,18.9 2.7,21.2 0.8,19.8 -1.2,21.2 -0.4,18.9 -2.3,17.6 0,17.6 
															"/>
							<polygon class="st6" points="0.8,25.3 1.5,27.5 3.9,27.5 1.9,28.9 2.7,31.2 0.8,29.8 -1.2,31.2 -0.4,28.9 -2.3,27.5 0,27.5 
															"/>
							<polygon class="st6" points="0.8,35.2 1.5,37.5 3.9,37.5 1.9,38.9 2.7,41.1 0.8,39.7 -1.2,41.1 -0.4,38.9 -2.3,37.5 0,37.5 
															"/>
							<polygon class="st6" points="0.8,45.2 1.5,47.4 3.9,47.4 1.9,48.8 2.7,51.1 0.8,49.7 -1.2,51.1 -0.4,48.8 -2.3,47.4 0,47.4 
															"/>
							<polygon class="st6" points="0.8,55.1 1.5,57.4 3.9,57.4 1.9,58.8 2.7,61 0.8,59.6 -1.2,61 -0.4,58.8 -2.3,57.4 0,57.4 
															"/>
							<polygon class="st6" points="7.7,20.5 8.4,22.8 10.8,22.8 8.9,24.2 9.6,26.4 7.7,25.1 5.8,26.4 6.5,24.2 4.6,22.8 7,22.8 
															"/>
							<polygon class="st6" points="7.7,30.5 8.4,32.8 10.8,32.8 8.9,34.1 9.6,36.4 7.7,35 5.8,36.4 6.5,34.1 4.6,32.8 7,32.8 
															"/>
							<polygon class="st6" points="7.7,40.5 8.4,42.7 10.8,42.7 8.9,44.1 9.6,46.4 7.7,45 5.8,46.4 6.5,44.1 4.6,42.7 7,42.7 
															"/>
							<polygon class="st6" points="7.7,50.4 8.4,52.7 10.8,52.7 8.9,54.1 9.6,56.3 7.7,54.9 5.8,56.3 6.5,54.1 4.6,52.7 7,52.7 
															"/>
							<polygon class="st6" points="14.7,15.3 15.5,17.6 17.8,17.6 15.9,18.9 16.6,21.2 14.7,19.8 12.8,21.2 13.5,18.9 11.6,17.6 
								14,17.6 							"/>
							<polygon class="st6" points="14.7,25.3 15.5,27.5 17.8,27.5 15.9,28.9 16.6,31.2 14.7,29.8 12.8,31.2 13.5,28.9 11.6,27.5 
								14,27.5 							"/>
							<polygon class="st6" points="14.7,35.2 15.5,37.5 17.8,37.5 15.9,38.9 16.6,41.1 14.7,39.7 12.8,41.1 13.5,38.9 11.6,37.5 
								14,37.5 							"/>
							<polygon class="st6" points="14.7,45.2 15.5,47.4 17.8,47.4 15.9,48.8 16.6,51.1 14.7,49.7 12.8,51.1 13.5,48.8 11.6,47.4 
								14,47.4 							"/>
							<polygon class="st6" points="14.7,55.1 15.5,57.4 17.8,57.4 15.9,58.8 16.6,61 14.7,59.6 12.8,61 13.5,58.8 11.6,57.4 
								14,57.4 							"/>
							<polygon class="st6" points="21.7,20.5 22.4,22.8 24.8,22.8 22.9,24.2 23.6,26.4 21.7,25.1 19.7,26.4 20.5,24.2 18.6,22.8 
								20.9,22.8 							"/>
							<polygon class="st6" points="21.7,30.5 22.4,32.8 24.8,32.8 22.9,34.1 23.6,36.4 21.7,35 19.7,36.4 20.5,34.1 18.6,32.8 
								20.9,32.8 							"/>
							<polygon class="st6" points="21.7,40.5 22.4,42.7 24.8,42.7 22.9,44.1 23.6,46.4 21.7,45 19.7,46.4 20.5,44.1 18.6,42.7 
								20.9,42.7 							"/>
							<polygon class="st6" points="21.7,50.4 22.4,52.7 24.8,52.7 22.9,54.1 23.6,56.3 21.7,54.9 19.7,56.3 20.5,54.1 18.6,52.7 
								20.9,52.7 							"/>
							<polygon class="st6" points="28.7,15.3 29.4,17.6 31.8,17.6 29.9,18.9 30.6,21.2 28.7,19.8 26.8,21.2 27.5,18.9 25.6,17.6 
								28,17.6 							"/>
							<polygon class="st6" points="28.7,25.3 29.4,27.5 31.8,27.5 29.9,28.9 30.6,31.2 28.7,29.8 26.8,31.2 27.5,28.9 25.6,27.5 
								28,27.5 							"/>
							<polygon class="st6" points="28.7,35.2 29.4,37.5 31.8,37.5 29.9,38.9 30.6,41.1 28.7,39.7 26.8,41.1 27.5,38.9 25.6,37.5 
								28,37.5 							"/>
							<polygon class="st6" points="28.7,45.2 29.4,47.4 31.8,47.4 29.9,48.8 30.6,51.1 28.7,49.7 26.8,51.1 27.5,48.8 25.6,47.4 
								28,47.4 							"/>
							<polygon class="st6" points="28.7,55.1 29.4,57.4 31.8,57.4 29.9,58.8 30.6,61 28.7,59.6 26.8,61 27.5,58.8 25.6,57.4 
								28,57.4 							"/>
							<polygon class="st6" points="35.6,20.5 36.4,22.8 38.7,22.8 36.8,24.2 37.5,26.4 35.6,25.1 33.7,26.4 34.4,24.2 32.5,22.8 
								34.9,22.8 							"/>
							<polygon class="st6" points="35.6,30.5 36.4,32.8 38.7,32.8 36.8,34.1 37.5,36.4 35.6,35 33.7,36.4 34.4,34.1 32.5,32.8 
								34.9,32.8 							"/>
							<polygon class="st6" points="35.6,40.5 36.4,42.7 38.7,42.7 36.8,44.1 37.5,46.4 35.6,45 33.7,46.4 34.4,44.1 32.5,42.7 
								34.9,42.7 							"/>
							<polygon class="st6" points="35.6,50.4 36.4,52.7 38.7,52.7 36.8,54.1 37.5,56.3 35.6,54.9 33.7,56.3 34.4,54.1 32.5,52.7 
								34.9,52.7 							"/>
							<polygon class="st6" points="42.7,15.3 43.4,17.6 45.8,17.6 43.8,18.9 44.6,21.2 42.7,19.8 40.7,21.2 41.5,18.9 39.6,17.6 
								41.9,17.6 							"/>
							<polygon class="st6" points="42.7,25.3 43.4,27.5 45.8,27.5 43.8,28.9 44.6,31.2 42.7,29.8 40.7,31.2 41.5,28.9 39.6,27.5 
								41.9,27.5 							"/>
							<polygon class="st6" points="42.7,35.2 43.4,37.5 45.8,37.5 43.8,38.9 44.6,41.1 42.7,39.7 40.7,41.1 41.5,38.9 39.6,37.5 
								41.9,37.5 							"/>
							<polygon class="st6" points="42.7,45.2 43.4,47.4 45.8,47.4 43.8,48.8 44.6,51.1 42.7,49.7 40.7,51.1 41.5,48.8 39.6,47.4 
								41.9,47.4 							"/>
							<polygon class="st6" points="42.7,55.1 43.4,57.4 45.8,57.4 43.8,58.8 44.6,61 42.7,59.6 40.7,61 41.5,58.8 39.6,57.4 
								41.9,57.4 							"/>
							<polygon class="st6" points="49.6,20.5 50.3,22.8 52.7,22.8 50.8,24.2 51.5,26.4 49.6,25.1 47.7,26.4 48.4,24.2 46.5,22.8 
								48.9,22.8 							"/>
							<polygon class="st6" points="49.6,30.5 50.3,32.8 52.7,32.8 50.8,34.1 51.5,36.4 49.6,35 47.7,36.4 48.4,34.1 46.5,32.8 
								48.9,32.8 							"/>
							<polygon class="st6" points="49.6,40.5 50.3,42.7 52.7,42.7 50.8,44.1 51.5,46.4 49.6,45 47.7,46.4 48.4,44.1 46.5,42.7 
								48.9,42.7 							"/>
							<polygon class="st6" points="49.6,50.4 50.3,52.7 52.7,52.7 50.8,54.1 51.5,56.3 49.6,54.9 47.7,56.3 48.4,54.1 46.5,52.7 
								48.9,52.7 							"/>
							<polygon class="st6" points="56.6,15.3 57.4,17.6 59.7,17.6 57.8,18.9 58.5,21.2 56.6,19.8 54.7,21.2 55.4,18.9 53.5,17.6 
								55.9,17.6 							"/>
							<polygon class="st6" points="56.6,25.3 57.4,27.5 59.7,27.5 57.8,28.9 58.5,31.2 56.6,29.8 54.7,31.2 55.4,28.9 53.5,27.5 
								55.9,27.5 							"/>
							<polygon class="st6" points="56.6,35.2 57.4,37.5 59.7,37.5 57.8,38.9 58.5,41.1 56.6,39.7 54.7,41.1 55.4,38.9 53.5,37.5 
								55.9,37.5 							"/>
							<polygon class="st6" points="56.6,45.2 57.4,47.4 59.7,47.4 57.8,48.8 58.5,51.1 56.6,49.7 54.7,51.1 55.4,48.8 53.5,47.4 
								55.9,47.4 							"/>
							<polygon class="st6" points="56.6,55.1 57.4,57.4 59.7,57.4 57.8,58.8 58.5,61 56.6,59.6 54.7,61 55.4,58.8 53.5,57.4 
								55.9,57.4 							"/>
						</g>
					</g>
				</g>
				<linearGradient id="SVGID_9_" gradientUnits="userSpaceOnUse" x1="63.4282" y1="68.1279" x2="63.542" y2="23.7102">
					<stop  offset="0" style="stop-color:#FFFFFF;stop-opacity:0"/>
					<stop  offset="1" style="stop-color:#FFFFFF"/>
				</linearGradient>
				<path class="st8" d="M105,39.4c0,16.1-18.6,29.1-41.5,29.1c-22.9,0-41.5-13-41.5-29.1c0-16.1,18.6-29.1,41.5-29.1
					C86.4,10.3,105,23.3,105,39.4z"/>
			</g>
			
				<radialGradient id="SVGID_10_" cx="-143.2573" cy="709.1706" r="60.8341" gradientTransform="matrix(0.933 0.3437 -0.3416 0.9388 438.9435 -553.5264)" gradientUnits="userSpaceOnUse">
				<stop  offset="0" style="stop-color:#FFFFFF"/>
				<stop  offset="8.531360e-02" style="stop-color:#F7F7F7"/>
				<stop  offset="0.2196" style="stop-color:#E0E0E0"/>
				<stop  offset="0.3861" style="stop-color:#BBBBBB"/>
				<stop  offset="0.5783" style="stop-color:#888888"/>
				<stop  offset="0.7893" style="stop-color:#484848"/>
				<stop  offset="1" style="stop-color:#000000"/>
			</radialGradient>
			<path class="st9" d="M119.8,83.9c-11.5,31.5-46.2,47.7-77.5,36.2c-31.3-11.6-47.5-46.5-36-78C17.7,10.5,52.4-5.7,83.8,5.9
				C115.1,17.4,131.2,52.4,119.8,83.9z"/>
		</g>
		<g class="st10">
			<g>
				<g>
					<path class="st1" d="M126,63c0,34.8-28.2,63-63,63C28.2,126,0,97.8,0,63C0,28.2,28.2,0,63,0C97.8,0,126,28.2,126,63z"/>
					<path class="st11" d="M125.9,63c0,34.7-28.1,62.9-62.9,62.9C28.3,125.9,0.1,97.7,0.1,63C0.1,28.3,28.3,0.1,63,0.1
						C97.7,0.1,125.9,28.3,125.9,63z"/>
					<path class="st12" d="M125.7,63c0,34.6-28.1,62.7-62.7,62.7C28.3,125.7,0.3,97.6,0.3,63C0.3,28.4,28.3,0.3,63,0.3
						C97.7,0.3,125.7,28.4,125.7,63z"/>
					<path class="st13" d="M125.6,63c0,34.6-28,62.6-62.6,62.6c-34.6,0-62.6-28-62.6-62.6c0-34.6,28-62.6,62.6-62.6
						C97.6,0.4,125.6,28.4,125.6,63z"/>
					<path class="st14" d="M125.5,63c0,34.5-28,62.5-62.5,62.5c-34.5,0-62.5-28-62.5-62.5c0-34.5,28-62.5,62.5-62.5
						C97.5,0.5,125.5,28.5,125.5,63z"/>
					<path class="st15" d="M125.3,63c0,34.4-27.9,62.3-62.3,62.3C28.6,125.3,0.7,97.4,0.7,63C0.7,28.6,28.6,0.7,63,0.7
						C97.4,0.7,125.3,28.6,125.3,63z"/>
					<path class="st16" d="M125.2,63c0,34.3-27.8,62.2-62.2,62.2C28.6,125.2,0.8,97.3,0.8,63C0.8,28.7,28.6,0.8,63,0.8
						C97.4,0.8,125.2,28.7,125.2,63z"/>
					<path class="st17" d="M125.1,63c0,34.3-27.8,62.1-62.1,62.1C28.7,125.1,0.9,97.3,0.9,63C0.9,28.7,28.7,0.9,63,0.9
						C97.3,0.9,125.1,28.7,125.1,63z"/>
					<path class="st18" d="M124.9,63c0,34.2-27.7,61.9-61.9,61.9C28.8,124.9,1.1,97.2,1.1,63C1.1,28.8,28.8,1.1,63,1.1
						C97.2,1.1,124.9,28.8,124.9,63z"/>
					<path class="st19" d="M124.8,63c0,34.1-27.7,61.8-61.8,61.8C28.9,124.8,1.2,97.1,1.2,63C1.2,28.9,28.9,1.2,63,1.2
						C97.1,1.2,124.8,28.9,124.8,63z"/>
					<path class="st20" d="M124.6,63c0,34-27.6,61.6-61.6,61.6C28.9,124.6,1.4,97,1.4,63C1.4,29,28.9,1.4,63,1.4
						C97.1,1.4,124.6,29,124.6,63z"/>
					<path class="st21" d="M124.5,63c0,34-27.5,61.5-61.5,61.5C29,124.5,1.5,97,1.5,63C1.5,29,29,1.5,63,1.5
						C97,1.5,124.5,29,124.5,63z"/>
					<path class="st22" d="M124.4,63c0,33.9-27.5,61.4-61.4,61.4C29.1,124.4,1.6,96.9,1.6,63C1.6,29.1,29.1,1.6,63,1.6
						C96.9,1.6,124.4,29.1,124.4,63z"/>
					<path class="st23" d="M124.2,63c0,33.8-27.4,61.2-61.2,61.2C29.2,124.2,1.8,96.8,1.8,63C1.8,29.2,29.2,1.8,63,1.8
						C96.8,1.8,124.2,29.2,124.2,63z"/>
					<path class="st24" d="M124.1,63c0,33.7-27.4,61.1-61.1,61.1C29.2,124.1,1.9,96.7,1.9,63C1.9,29.3,29.2,1.9,63,1.9
						C96.8,1.9,124.1,29.3,124.1,63z"/>
					<path class="st25" d="M124,63c0,33.7-27.3,61-61,61C29.3,124,2,96.7,2,63C2,29.3,29.3,2,63,2C96.7,2,124,29.3,124,63z"/>
					<path class="st26" d="M123.8,63c0,33.6-27.2,60.8-60.8,60.8C29.4,123.8,2.2,96.6,2.2,63C2.2,29.4,29.4,2.2,63,2.2
						C96.6,2.2,123.8,29.4,123.8,63z"/>
					<path class="st27" d="M123.7,63c0,33.5-27.2,60.7-60.7,60.7C29.5,123.7,2.3,96.5,2.3,63C2.3,29.5,29.5,2.3,63,2.3
						C96.5,2.3,123.7,29.5,123.7,63z"/>
					<path class="st28" d="M123.6,63c0,33.4-27.1,60.6-60.6,60.6C29.5,123.6,2.4,96.4,2.4,63C2.4,29.5,29.5,2.4,63,2.4
						C96.5,2.4,123.6,29.5,123.6,63z"/>
					<path class="st29" d="M123.4,63c0,33.4-27.1,60.4-60.4,60.4C29.6,123.4,2.6,96.4,2.6,63C2.6,29.6,29.6,2.6,63,2.6
						C96.4,2.6,123.4,29.6,123.4,63z"/>
					<path class="st30" d="M123.3,63c0,33.3-27,60.3-60.3,60.3c-33.3,0-60.3-27-60.3-60.3c0-33.3,27-60.3,60.3-60.3
						C96.3,2.7,123.3,29.7,123.3,63z"/>
					<path class="st31" d="M123.2,63c0,33.2-26.9,60.2-60.2,60.2C29.8,123.2,2.8,96.2,2.8,63C2.8,29.8,29.8,2.8,63,2.8
						C96.2,2.8,123.2,29.8,123.2,63z"/>
					<path class="st32" d="M123,63c0,33.1-26.9,60-60,60C29.8,123,3,96.1,3,63C3,29.8,29.8,3,63,3C96.2,3,123,29.8,123,63z"/>
					<path class="st33" d="M122.9,63c0,33.1-26.8,59.9-59.9,59.9C29.9,122.9,3.1,96.1,3.1,63C3.1,29.9,29.9,3.1,63,3.1
						C96.1,3.1,122.9,29.9,122.9,63z"/>
					<path class="st34" d="M122.8,63c0,33-26.7,59.8-59.7,59.8C30,122.8,3.2,96,3.2,63C3.2,30,30,3.3,63,3.3
						C96,3.3,122.8,30,122.8,63z"/>
					<path class="st35" d="M122.6,63c0,32.9-26.7,59.6-59.6,59.6C30.1,122.6,3.4,95.9,3.4,63C3.4,30.1,30.1,3.4,63,3.4
						C95.9,3.4,122.6,30.1,122.6,63z"/>
					<path class="st36" d="M122.5,63c0,32.8-26.6,59.5-59.5,59.5C30.1,122.5,3.5,95.8,3.5,63C3.5,30.1,30.1,3.5,63,3.5
						C95.9,3.5,122.5,30.1,122.5,63z"/>
					<path class="st37" d="M122.3,63c0,32.8-26.6,59.3-59.3,59.3C30.2,122.3,3.7,95.8,3.7,63C3.7,30.2,30.2,3.7,63,3.7
						C95.8,3.7,122.3,30.2,122.3,63z"/>
					<path class="st38" d="M122.2,63c0,32.7-26.5,59.2-59.2,59.2C30.3,122.2,3.8,95.7,3.8,63C3.8,30.3,30.3,3.8,63,3.8
						C95.7,3.8,122.2,30.3,122.2,63z"/>
					<path class="st39" d="M122.1,63c0,32.6-26.4,59.1-59.1,59.1C30.4,122.1,3.9,95.6,3.9,63C3.9,30.4,30.4,3.9,63,3.9
						C95.6,3.9,122.1,30.4,122.1,63z"/>
					<path class="st40" d="M121.9,63c0,32.5-26.4,58.9-58.9,58.9C30.4,121.9,4.1,95.5,4.1,63C4.1,30.4,30.4,4.1,63,4.1
						C95.6,4.1,121.9,30.4,121.9,63z"/>
					<path d="M121.8,63c0,32.5-26.3,58.8-58.8,58.8C30.5,121.8,4.2,95.5,4.2,63C4.2,30.5,30.5,4.2,63,4.2
						C95.5,4.2,121.8,30.5,121.8,63z"/>
				</g>
				
					<radialGradient id="SVGID_11_" cx="62.9476" cy="62.9231" r="66.2349" gradientTransform="matrix(0.9978 0 0 0.9978 0.192 0.2204)" gradientUnits="userSpaceOnUse">
					<stop  offset="0" style="stop-color:#FFFFFF"/>
					<stop  offset="0.6923" style="stop-color:#FAFAFA"/>
					<stop  offset="1" style="stop-color:#CCCCCC"/>
				</radialGradient>
				<path class="st41" d="M121.8,63c0,32.5-26.3,58.8-58.8,58.8C30.5,121.8,4.2,95.5,4.2,63C4.2,30.5,30.5,4.2,63,4.2
					C95.5,4.2,121.8,30.5,121.8,63z"/>
			</g>
		</g>
	</g>
	<g id="USA_3_">
		<g>
			<g>
				<g>
					<defs>
						<path id="SVGID_12_" d="M115,62.3c0,29.3-23.8,53.1-53.1,53.1c-29.3,0-53.1-23.8-53.1-53.1C8.8,33,32.6,9.2,61.9,9.2
							C91.2,9.2,115,33,115,62.3z"/>
					</defs>
					<clipPath id="SVGID_13_">
						<use xlink:href="#SVGID_12_"  style="overflow:visible;"/>
					</clipPath>
					<g class="st42">
						<g>
							<polygon class="st1" points="44.2,9.2 79.7,9.2 79.7,45.7 168.4,44.6 168.4,80.1 79.7,81.2 79.7,116.6 44.2,116.6 44.2,81.2 
								-44.5,80.1 -44.5,44.6 44.2,45.7 							"/>
							<polygon class="st1" points="-44.5,9.2 -20.7,10.2 168.4,104.7 168.4,115.6 144.6,116.6 -44.5,21.1 							"/>
							<g>
								<polygon class="st1" points="168.4,9.2 144.6,10.2 -44.5,104.7 -44.5,115.6 -20.7,116.6 168.4,21.1 								"/>
							</g>
						</g>
					</g>
				</g>
				<linearGradient id="SVGID_14_" gradientUnits="userSpaceOnUse" x1="61.8512" y1="70.6771" x2="61.9651" y2="26.2595">
					<stop  offset="0" style="stop-color:#FFFFFF;stop-opacity:0"/>
					<stop  offset="1" style="stop-color:#FFFFFF"/>
				</linearGradient>
				<path class="st43" d="M103.5,42C103.5,58,84.9,71,61.9,71C39,71,20.4,58,20.4,42S39,12.9,61.9,12.9
					C84.9,12.9,103.5,25.9,103.5,42z"/>
				<linearGradient id="SVGID_15_" gradientUnits="userSpaceOnUse" x1="62.6789" y1="47.6877" x2="62.6789" y2="102.3693">
					<stop  offset="5.618000e-03" style="stop-color:#DDE1E4"/>
					<stop  offset="0.2528" style="stop-color:#FFFBE3"/>
					<stop  offset="0.3953" style="stop-color:#F0EAD6"/>
					<stop  offset="0.5955" style="stop-color:#D4CBBF"/>
					<stop  offset="0.7865" style="stop-color:#ECECED"/>
					<stop  offset="1" style="stop-color:#D6D3B9"/>
				</linearGradient>
				<path class="st44" d="M4.3,61.9c0,18.3,8.4,34.7,21.6,45.4C15.5,95.9,9,79.8,9,61.9c0-17.9,6.5-34,16.9-45.4
					C12.7,27.2,4.3,43.6,4.3,61.9z M99.5,16.5c10.4,11.4,16.9,27.5,16.9,45.4c0,17.9-6.5,34-16.9,45.4
					c13.2-10.7,21.6-27.1,21.6-45.4S112.7,27.2,99.5,16.5z"/>
				<path class="st1" d="M62.7,116.1c-29.9,0-54.2-24.2-54.8-52.8c0,0.4,0,0.7,0,1.1c0,30.3,24.6,54.8,54.8,54.8
					c30.3,0,54.8-24.6,54.8-54.8c0-0.4,0-0.7,0-1.1C116.9,91.9,92.6,116.1,62.7,116.1z"/>
				<path class="st1" d="M62.7,8.2c29.9,0,54.2,23.3,54.8,51.9c0-0.4,0-0.7,0-1.1c0-30.3-24.6-54.8-54.8-54.8
					C32.4,4.2,7.8,28.7,7.8,59c0,0.4,0,0.7,0,1.1C8.4,31.5,32.8,8.2,62.7,8.2z"/>
				<g>
				</g>
				<g>
					<defs>
						<path id="SVGID_16_" d="M122.4,62.5c0,32.7-26.5,59.3-59.3,59.3c-32.7,0-59.3-26.5-59.3-59.3c0-32.7,26.5-59.3,59.3-59.3
							C95.9,3.2,122.4,29.8,122.4,62.5z"/>
					</defs>
					<clipPath id="SVGID_17_">
						<use xlink:href="#SVGID_16_"  style="overflow:visible;"/>
					</clipPath>
					<g class="st45">
						<g>
							<defs>
								<rect id="SVGID_18_" x="-27.5" y="3.2" width="205.1" height="119.6"/>
							</defs>
							<clipPath id="SVGID_19_">
								<use xlink:href="#SVGID_18_"  style="overflow:visible;"/>
							</clipPath>
							<rect x="-27.5" y="113.7" class="st46" width="205.1" height="9.2"/>
							<rect x="-27.5" y="104.5" class="st47" width="205.1" height="9.2"/>
							<rect x="-27.5" y="95.3" class="st46" width="205.1" height="9.2"/>
							<rect x="-27.5" y="86.1" class="st47" width="205.1" height="9.2"/>
							<rect x="-27.5" y="76.9" class="st46" width="205.1" height="9.2"/>
							<rect x="-27.5" y="67.7" class="st47" width="205.1" height="9.2"/>
							<rect x="-27.5" y="58.5" class="st46" width="205.1" height="9.2"/>
							<rect x="-27.5" y="49.2" class="st47" width="205.1" height="9.2"/>
							<rect x="-27.5" y="40" class="st46" width="205.1" height="9.2"/>
							<rect x="-27.5" y="30.8" class="st47" width="205.1" height="9.2"/>
							<rect x="-27.5" y="21.6" class="st46" width="205.1" height="9.2"/>
							<rect x="-27.5" y="12.4" class="st47" width="205.1" height="9.2"/>
							<rect x="-27.5" y="3.2" class="st46" width="205.1" height="9.2"/>
							<rect x="-27.5" y="3.2" class="st48" width="93.6" height="64.4"/>
							<polygon class="st47" points="-19.1,10.3 -18.3,12.8 -15.7,12.8 -17.8,14.3 -17,16.7 -19.1,15.2 -21.2,16.7 -20.4,14.3 
								-22.4,12.8 -19.9,12.8 							"/>
							<polygon class="st47" points="-19.1,21.1 -18.3,23.5 -15.7,23.5 -17.8,25 -17,27.5 -19.1,25.9 -21.2,27.5 -20.4,25 
								-22.4,23.5 -19.9,23.5 							"/>
							<polygon class="st47" points="-19.1,31.8 -18.3,34.3 -15.7,34.3 -17.8,35.8 -17,38.2 -19.1,36.7 -21.2,38.2 -20.4,35.8 
								-22.4,34.3 -19.9,34.3 							"/>
							<polygon class="st47" points="-19.1,42.6 -18.3,45 -15.7,45 -17.8,46.5 -17,49 -19.1,47.5 -21.2,49 -20.4,46.5 -22.4,45 
								-19.9,45 							"/>
							<polygon class="st47" points="-19.1,53.3 -18.3,55.8 -15.7,55.8 -17.8,57.3 -17,59.7 -19.1,58.2 -21.2,59.7 -20.4,57.3 
								-22.4,55.8 -19.9,55.8 							"/>
							<polygon class="st47" points="-11.6,16 -10.8,18.4 -8.2,18.4 -10.3,19.9 -9.5,22.4 -11.6,20.9 -13.7,22.4 -12.9,19.9 
								-14.9,18.4 -12.4,18.4 							"/>
							<polygon class="st47" points="-11.6,26.8 -10.8,29.2 -8.2,29.2 -10.3,30.7 -9.5,33.1 -11.6,31.6 -13.7,33.1 -12.9,30.7 
								-14.9,29.2 -12.4,29.2 							"/>
							<polygon class="st47" points="-11.6,37.5 -10.8,39.9 -8.2,39.9 -10.3,41.4 -9.5,43.9 -11.6,42.4 -13.7,43.9 -12.9,41.4 
								-14.9,39.9 -12.4,39.9 							"/>
							<polygon class="st47" points="-11.6,48.3 -10.8,50.7 -8.2,50.7 -10.3,52.2 -9.5,54.6 -11.6,53.1 -13.7,54.6 -12.9,52.2 
								-14.9,50.7 -12.4,50.7 							"/>
							<polygon class="st47" points="-4,10.3 -3.2,12.8 -0.7,12.8 -2.7,14.3 -1.9,16.7 -4,15.2 -6.1,16.7 -5.3,14.3 -7.4,12.8 
								-4.8,12.8 							"/>
							<polygon class="st47" points="-4,21.1 -3.2,23.5 -0.7,23.5 -2.7,25 -1.9,27.5 -4,25.9 -6.1,27.5 -5.3,25 -7.4,23.5 
								-4.8,23.5 							"/>
							<polygon class="st47" points="-4,31.8 -3.2,34.3 -0.7,34.3 -2.7,35.8 -1.9,38.2 -4,36.7 -6.1,38.2 -5.3,35.8 -7.4,34.3 
								-4.8,34.3 							"/>
							<polygon class="st47" points="-4,42.6 -3.2,45 -0.7,45 -2.7,46.5 -1.9,49 -4,47.5 -6.1,49 -5.3,46.5 -7.4,45 -4.8,45 							
								"/>
							<polygon class="st47" points="-4,53.3 -3.2,55.8 -0.7,55.8 -2.7,57.3 -1.9,59.7 -4,58.2 -6.1,59.7 -5.3,57.3 -7.4,55.8 
								-4.8,55.8 							"/>
							<polygon class="st47" points="3.5,16 4.3,18.4 6.8,18.4 4.8,19.9 5.5,22.4 3.5,20.9 1.4,22.4 2.2,19.9 0.1,18.4 2.7,18.4 
															"/>
							<polygon class="st47" points="3.5,26.8 4.3,29.2 6.8,29.2 4.8,30.7 5.5,33.1 3.5,31.6 1.4,33.1 2.2,30.7 0.1,29.2 2.7,29.2 
															"/>
							<polygon class="st47" points="3.5,37.5 4.3,39.9 6.8,39.9 4.8,41.4 5.5,43.9 3.5,42.4 1.4,43.9 2.2,41.4 0.1,39.9 2.7,39.9 
															"/>
							<polygon class="st47" points="3.5,48.3 4.3,50.7 6.8,50.7 4.8,52.2 5.5,54.6 3.5,53.1 1.4,54.6 2.2,52.2 0.1,50.7 2.7,50.7 
															"/>
							<polygon class="st47" points="11.1,10.3 11.9,12.8 14.4,12.8 12.3,14.3 13.1,16.7 11.1,15.2 9,16.7 9.8,14.3 7.7,12.8 
								10.3,12.8 							"/>
							<polygon class="st47" points="11.1,21.1 11.9,23.5 14.4,23.5 12.3,25 13.1,27.5 11.1,25.9 9,27.5 9.8,25 7.7,23.5 10.3,23.5 
															"/>
							<polygon class="st47" points="11.1,31.8 11.9,34.3 14.4,34.3 12.3,35.8 13.1,38.2 11.1,36.7 9,38.2 9.8,35.8 7.7,34.3 
								10.3,34.3 							"/>
							<polygon class="st47" points="11.1,42.6 11.9,45 14.4,45 12.3,46.5 13.1,49 11.1,47.5 9,49 9.8,46.5 7.7,45 10.3,45 							
								"/>
							<polygon class="st47" points="11.1,53.3 11.9,55.8 14.4,55.8 12.3,57.3 13.1,59.7 11.1,58.2 9,59.7 9.8,57.3 7.7,55.8 
								10.3,55.8 							"/>
							<polygon class="st47" points="18.6,16 19.3,18.4 21.9,18.4 19.8,19.9 20.6,22.4 18.6,20.9 16.5,22.4 17.3,19.9 15.2,18.4 
								17.8,18.4 							"/>
							<polygon class="st47" points="18.6,26.8 19.3,29.2 21.9,29.2 19.8,30.7 20.6,33.1 18.6,31.6 16.5,33.1 17.3,30.7 15.2,29.2 
								17.8,29.2 							"/>
							<polygon class="st47" points="18.6,37.5 19.3,39.9 21.9,39.9 19.8,41.4 20.6,43.9 18.6,42.4 16.5,43.9 17.3,41.4 15.2,39.9 
								17.8,39.9 							"/>
							<polygon class="st47" points="18.6,48.3 19.3,50.7 21.9,50.7 19.8,52.2 20.6,54.6 18.6,53.1 16.5,54.6 17.3,52.2 15.2,50.7 
								17.8,50.7 							"/>
							<polygon class="st47" points="26.1,10.3 26.9,12.8 29.5,12.8 27.4,14.3 28.2,16.7 26.1,15.2 24.1,16.7 24.9,14.3 22.8,12.8 
								25.3,12.8 							"/>
							<polygon class="st47" points="26.1,21.1 26.9,23.5 29.5,23.5 27.4,25 28.2,27.5 26.1,25.9 24.1,27.5 24.9,25 22.8,23.5 
								25.3,23.5 							"/>
							<polygon class="st47" points="26.1,31.8 26.9,34.3 29.5,34.3 27.4,35.8 28.2,38.2 26.1,36.7 24.1,38.2 24.9,35.8 22.8,34.3 
								25.3,34.3 							"/>
							<polygon class="st47" points="26.1,42.6 26.9,45 29.5,45 27.4,46.5 28.2,49 26.1,47.5 24.1,49 24.9,46.5 22.8,45 25.3,45 
															"/>
							<polygon class="st47" points="26.1,53.3 26.9,55.8 29.5,55.8 27.4,57.3 28.2,59.7 26.1,58.2 24.1,59.7 24.9,57.3 22.8,55.8 
								25.3,55.8 							"/>
							<polygon class="st47" points="33.6,16 34.4,18.4 37,18.4 34.9,19.9 35.7,22.4 33.6,20.9 31.6,22.4 32.4,19.9 30.3,18.4 
								32.8,18.4 							"/>
							<polygon class="st47" points="33.6,26.8 34.4,29.2 37,29.2 34.9,30.7 35.7,33.1 33.6,31.6 31.6,33.1 32.4,30.7 30.3,29.2 
								32.8,29.2 							"/>
							<polygon class="st47" points="33.6,37.5 34.4,39.9 37,39.9 34.9,41.4 35.7,43.9 33.6,42.4 31.6,43.9 32.4,41.4 30.3,39.9 
								32.8,39.9 							"/>
							<polygon class="st47" points="33.6,48.3 34.4,50.7 37,50.7 34.9,52.2 35.7,54.6 33.6,53.1 31.6,54.6 32.4,52.2 30.3,50.7 
								32.8,50.7 							"/>
							<polygon class="st47" points="41.2,10.3 42,12.8 44.6,12.8 42.5,14.3 43.3,16.7 41.2,15.2 39.1,16.7 39.9,14.3 37.9,12.8 
								40.4,12.8 							"/>
							<polygon class="st47" points="41.2,21.1 42,23.5 44.6,23.5 42.5,25 43.3,27.5 41.2,25.9 39.1,27.5 39.9,25 37.9,23.5 
								40.4,23.5 							"/>
							<polygon class="st47" points="41.2,31.8 42,34.3 44.6,34.3 42.5,35.8 43.3,38.2 41.2,36.7 39.1,38.2 39.9,35.8 37.9,34.3 
								40.4,34.3 							"/>
							<polygon class="st47" points="41.2,42.6 42,45 44.6,45 42.5,46.5 43.3,49 41.2,47.5 39.1,49 39.9,46.5 37.9,45 40.4,45 
															"/>
							<polygon class="st47" points="41.2,53.3 42,55.8 44.6,55.8 42.5,57.3 43.3,59.7 41.2,58.2 39.1,59.7 39.9,57.3 37.9,55.8 
								40.4,55.8 							"/>
							<polygon class="st47" points="48.7,16 49.5,18.4 52.1,18.4 50,19.9 50.8,22.4 48.7,20.9 46.6,22.4 47.4,19.9 45.4,18.4 
								47.9,18.4 							"/>
							<polygon class="st47" points="48.7,26.8 49.5,29.2 52.1,29.2 50,30.7 50.8,33.1 48.7,31.6 46.6,33.1 47.4,30.7 45.4,29.2 
								47.9,29.2 							"/>
							<polygon class="st47" points="48.7,37.5 49.5,39.9 52.1,39.9 50,41.4 50.8,43.9 48.7,42.4 46.6,43.9 47.4,41.4 45.4,39.9 
								47.9,39.9 							"/>
							<polygon class="st47" points="48.7,48.3 49.5,50.7 52.1,50.7 50,52.2 50.8,54.6 48.7,53.1 46.6,54.6 47.4,52.2 45.4,50.7 
								47.9,50.7 							"/>
							<polygon class="st47" points="56.3,10.3 57.1,12.8 59.6,12.8 57.6,14.3 58.4,16.7 56.3,15.2 54.2,16.7 55,14.3 52.9,12.8 
								55.5,12.8 							"/>
							<polygon class="st47" points="56.3,21.1 57.1,23.5 59.6,23.5 57.6,25 58.4,27.5 56.3,25.9 54.2,27.5 55,25 52.9,23.5 
								55.5,23.5 							"/>
							<polygon class="st47" points="56.3,31.8 57.1,34.3 59.6,34.3 57.6,35.8 58.4,38.2 56.3,36.7 54.2,38.2 55,35.8 52.9,34.3 
								55.5,34.3 							"/>
							<polygon class="st47" points="56.3,42.6 57.1,45 59.6,45 57.6,46.5 58.4,49 56.3,47.5 54.2,49 55,46.5 52.9,45 55.5,45 
															"/>
							<polygon class="st47" points="56.3,53.3 57.1,55.8 59.6,55.8 57.6,57.3 58.4,59.7 56.3,58.2 54.2,59.7 55,57.3 52.9,55.8 
								55.5,55.8 							"/>
						</g>
					</g>
				</g>
				<linearGradient id="SVGID_20_" gradientUnits="userSpaceOnUse" x1="63.7697" y1="66.8492" x2="63.8836" y2="22.4307">
					<stop  offset="0" style="stop-color:#FFFFFF;stop-opacity:0"/>
					<stop  offset="1" style="stop-color:#FFFFFF"/>
				</linearGradient>
				<path class="st49" d="M105.4,38.1c0,16.1-18.6,29.1-41.5,29.1c-22.9,0-41.5-13-41.5-29.1C22.3,22.1,40.9,9,63.8,9
					C86.8,9,105.4,22.1,105.4,38.1z"/>
			</g>
		</g>
	</g>
</g>
</svg>
